#!OML:ASF F:\VICON\USERDATA\INSTALL\rory3\rory3.ASF
:FULLY-SPECIFIED
:DEGREES
411
root -3.07545 17.6738 10.5857 -181.955 4.0272 -180.611
lowerback 12.3002 1.00279 -4.58716
upperback 0.517828 0.829176 0.672582
thorax -6.43782 0.593627 3.15246
lowerneck -18.2167 -8.48792 -11.6227
upperneck 30.3484 -10.1929 9.36037
head 14.709 -3.93744 4.07958
rclavicle 9.81228e-015 -6.83788e-015
rhumerus -38.0211 -19.9378 -75.801
rradius 33.2711
rwrist 8.38302
rhand -18.9827 4.13928
rfingers 7.12502
rthumb 7.3219 -25.714
lclavicle 9.81228e-015 -6.83788e-015
lhumerus -35.8298 4.00619 80.3795
lradius 34.3817
lwrist -2.87606
lhand -15.655 27.6489
lfingers 7.12502
lthumb 10.533 57.3649
rfemur -7.18944 -0.692229 4.33965
rtibia 36.5901
rfoot -15.3033 -4.26317
rtoes 2.79503
lfemur -2.13322 -3.77522 -17.7538
ltibia 23.3648
lfoot -17.6048 -7.99499
ltoes -9.31317
412
root -3.00487 17.671 10.5894 -181.961 3.6654 -180.51
lowerback 12.2341 0.933349 -4.46126
upperback 0.530605 0.759992 0.703047
thorax -6.37949 0.554936 3.1262
lowerneck -18.2077 -8.43831 -11.6338
upperneck 30.2549 -10.1363 9.41936
head 14.6614 -3.90995 4.11387
rclavicle 1.25949e-015 2.842e-015
rhumerus -37.9744 -19.9352 -75.778
rradius 33.2109
rwrist 8.435
rhand -18.9721 4.32219
rfingers 7.12502
rthumb 7.33207 -25.5308
lclavicle 1.25949e-015 2.842e-015
lhumerus -35.7467 4.13778 80.2724
lradius 34.3858
lwrist -3.12048
lhand -15.5488 27.5362
lfingers 7.12502
lthumb 10.6354 57.247
rfemur -6.73335 -0.0145381 4.06275
rtibia 35.6504
rfoot -14.7929 -4.87885
rtoes 3.72111
lfemur -2.15598 -4.15184 -17.3966
ltibia 23.2994
lfoot -17.5124 -8.14515
ltoes -9.35587
413
root -2.93309 17.6617 10.5958 -182.007 3.41489 -180.481
lowerback 12.2432 0.911991 -4.38056
upperback 0.550474 0.743744 0.693779
thorax -6.36066 0.544329 3.07347
lowerneck -18.3346 -8.4403 -11.7316
upperneck 30.3117 -10.1375 9.5525
head 14.7328 -3.89777 4.18743
rclavicle -3.76371e-015 -2.57644e-015
rhumerus -37.9475 -20.0599 -75.7158
rradius 33.1419
rwrist 8.63854
rhand -18.8602 4.43568
rfingers 7.12502
rthumb 7.44005 -25.4135
lclavicle -3.76371e-015 -2.57644e-015
lhumerus -35.6661 4.1175 80.1863
lradius 34.396
lwrist -3.10657
lhand -15.7633 27.2217
lfingers 7.12502
lthumb 10.4285 56.9431
rfemur -6.28968 0.615869 3.70423
rtibia 34.7356
rfoot -14.5209 -5.32449
rtoes 3.83902
lfemur -2.11158 -4.53406 -17.1266
ltibia 23.224
lfoot -17.3954 -8.1421
ltoes -9.46157
414
root -2.85855 17.6549 10.6047 -181.997 3.26223 -180.577
lowerback 12.3001 1.00429 -4.47906
upperback 0.471285 0.84288 0.664966
thorax -6.48688 0.598036 3.08056
lowerneck -18.3624 -8.50137 -11.8133
upperneck 30.3793 -10.214 9.62473
head 14.7928 -3.92313 4.22043
rclavicle -2.61652e-015 -5.50696e-015
rhumerus -38.1007 -20.2678 -75.5234
rradius 33.1049
rwrist 8.80445
rhand -18.957 4.2398
rfingers 7.12502
rthumb 7.3467 -25.6126
lclavicle -2.61652e-015 -5.50696e-015
lhumerus -35.661 3.75867 80.2289
lradius 34.4173
lwrist -2.89353
lhand -15.8551 27.0655
lfingers 7.12502
lthumb 10.3399 56.7913
rfemur -5.9478 1.25224 3.21225
rtibia 33.8011
rfoot -14.3007 -5.5907
rtoes 3.62368
lfemur -2.1346 -4.70981 -16.9719
ltibia 23.1743
lfoot -17.4 -8.13455
ltoes -10.0442
415
root -2.78102 17.6528 10.6094 -181.995 3.04215 -180.584
lowerback 12.3022 1.06178 -4.52888
upperback 0.419899 0.908783 0.670005
thorax -6.5497 0.633061 3.10216
lowerneck -18.3673 -8.54395 -11.7648
upperneck 30.3974 -10.267 9.55811
head 14.8014 -3.94613 4.17413
rclavicle -8.19861e-015 -4.00365e-015
rhumerus -38.2053 -20.4251 -75.3886
rradius 33.0588
rwrist 8.7726
rhand -19.1085 4.28881
rfingers 7.12502
rthumb 7.20038 -25.5687
lclavicle -8.19861e-015 -4.00365e-015
lhumerus -35.6193 3.62508 80.1946
lradius 34.4089
lwrist -2.93846
lhand -15.8802 27.2652
lfingers 7.12502
lthumb 10.3157 56.9922
rfemur -5.55166 1.97495 2.87971
rtibia 32.843
rfoot -14.0671 -5.77745
rtoes 3.17225
lfemur -2.14121 -4.9446 -16.7141
ltibia 23.1288
lfoot -17.419 -8.08032
ltoes -10.0134
416
root -2.70089 17.6513 10.6114 -182.018 2.7858 -180.372
lowerback 12.2102 1.03524 -4.3371
upperback 0.44245 0.909238 0.730283
thorax -6.47174 0.626269 3.05816
lowerneck -18.3698 -8.5164 -11.7361
upperneck 30.2901 -10.2417 9.5663
head 14.7476 -3.9355 4.17241
rclavicle -4.82781e-015 -2.63157e-015
rhumerus -38.1101 -20.3104 -75.4483
rradius 32.9786
rwrist 8.51786
rhand -19.0545 4.19383
rfingers 7.12502
rthumb 7.25259 -25.6619
lclavicle -4.82781e-015 -2.63157e-015
lhumerus -35.5241 3.75444 80.0372
lradius 34.3533
lwrist -3.12237
lhand -15.8969 27.3146
lfingers 7.12502
lthumb 10.2996 57.0424
rfemur -5.07843 2.84053 2.87066
rtibia 31.8644
rfoot -13.7659 -5.87418
rtoes 2.67472
lfemur -2.12236 -5.2149 -16.208
ltibia 23.0834
lfoot -17.4461 -8.01957
ltoes -9.31136
